# This file uses centimeters as units for non-parametric coordinates.

mtllib elkol123.mtl
g skinCluster4Set tweakSet4
v 66.857643 18.184029 -34.310921
v 71.887192 15.831158 -34.468964
v 74.592834 19.207872 -31.036535
v 68.671364 21.939758 -30.651773
v 68.301315 22.159405 -42.411015
v 71.661163 28.033295 -40.507702
v 75.623383 26.129988 -40.473366
v 72.921265 20.002237 -42.638355
v 70.183777 23.379602 -48.634544
v 74.652481 20.762663 -47.160339
v 77.166664 26.365957 -45.363823
v 73.612488 28.417419 -46.441978
v 77.874435 21.039991 -51.258663
v 80.487419 19.323511 -49.594772
v 82.172623 23.089073 -48.419403
v 80.105927 24.442497 -49.730511
g skinCluster3Set tweakSet3
v 70.871803 5.919168 -37.839928
v 73.917953 5.919168 -30.416897
v 73.385612 24.059319 -30.666430
v 70.358643 24.048805 -38.207069
v 84.296791 3.932236 -39.179787
v 83.504890 26.220160 -39.059944
v 89.222214 26.026913 -35.672768
v 89.461266 3.932236 -36.019730
v 82.932198 3.932236 -46.737270
v 87.852898 3.932236 -48.989128
v 87.888046 26.036301 -48.668129
v 83.188896 25.999346 -46.383625
v 71.942337 3.923241 -48.458870
v 75.926117 3.932236 -52.048180
v 72.703720 25.976187 -48.792423
v 76.601929 26.003920 -52.232063
g default
v 80.723839 4.182856 -47.834145
v 80.064522 4.439226 -48.739624
v 79.147835 4.658409 -49.396870
v 78.063507 4.818958 -49.741535
v 76.917702 4.905146 -49.739895
v 75.822548 4.908545 -49.392097
v 74.885254 4.828823 -48.732193
v 74.197594 4.673774 -47.824776
v 73.826866 4.458585 -46.758682
v 73.809349 4.204313 -45.638248
v 74.146759 3.935858 -44.573166
v 74.806084 3.679489 -43.667686
v 75.722763 3.460306 -43.010441
v 76.807091 3.299757 -42.665775
v 77.952911 3.213568 -42.667419
v 79.048050 3.210171 -43.015213
v 79.985336 3.289892 -43.675117
v 80.672997 3.444941 -44.582531
v 81.043739 3.660129 -45.648632
v 81.061256 3.914397 -46.769062
v 83.986313 47.366081 -37.983204
v 83.326996 47.622448 -38.888683
v 82.410309 47.841637 -39.545929
v 81.325981 48.002178 -39.890594
v 80.180176 48.088367 -39.888950
v 79.085022 48.091770 -39.541153
v 78.147728 48.012047 -38.881248
v 77.460075 47.856995 -37.973839
v 77.089333 47.641808 -36.907738
v 77.071823 47.387535 -35.787308
v 77.409225 47.119087 -34.722221
v 78.068550 46.862713 -33.816742
v 78.985237 46.643528 -33.159500
v 80.069565 46.482983 -32.814835
v 81.215385 46.396790 -32.816479
v 82.310524 46.393391 -33.164272
v 83.247810 46.473114 -33.824177
v 83.935471 46.628166 -34.731590
v 84.306206 46.843353 -35.797691
v 84.323730 47.097618 -36.918121
v 77.167648 -4.349812 -47.823593
v 80.697777 47.242577 -36.352711
g skinCluster1Set tweakSet1
v -57.387333 2.073342 -22.117699
v 0.501593 1.830854 -17.538879
v -57.373852 2.073342 -3.386770
v 3.283821 2.073342 -3.479048
v -57.371449 27.885807 -3.376486
v 3.287364 27.885807 -3.468159
v -57.387966 27.885807 -22.106747
v 0.439417 27.885807 -21.981792
g skinCluster2Set tweakSet2
v -2.835464 5.569421 -17.083923
v 70.910728 5.418807 -37.542030
v 4.260453 5.277057 -4.722779
v 74.105896 5.418807 -30.046625
v 3.208563 26.658566 -3.936241
v 73.176178 24.540342 -30.202965
v -1.994060 26.658566 -20.716793
v 70.592148 24.540342 -38.548889
vt 0.499177 0.250000
vt 0.499177 0.000000
vt 0.572048 0.000000
vt 0.572048 0.250000
vt 0.499177 0.500000
vt 0.572048 0.500000
vt 0.499177 0.750000
vt 0.572048 0.750000
vt 0.499177 1.000000
vt 0.572048 1.000000
vt 0.125000 0.000000
vt 0.375000 0.000000
vt 0.375000 0.250000
vt 0.125000 0.250000
vt 0.375000 0.750000
vt 0.375000 1.000000
vt 0.375000 0.500000
vt 0.000000 0.000000
vt 1.000000 0.000000
vt 1.000000 1.000000
vt 0.000000 1.000000
vt 0.000000 0.000000
vt 1.000000 0.000000
vt 1.000000 1.000000
vt 0.000000 1.000000
vt 0.000000 0.000000
vt 1.000000 0.000000
vt 1.000000 1.000000
vt 0.000000 1.000000
vt 0.000000 0.000000
vt 1.000000 0.000000
vt 1.000000 1.000000
vt 0.000000 1.000000
vt 0.499177 0.250000
vt 0.499177 0.000000
vt 0.572048 0.000000
vt 0.572048 0.250000
vt 0.499177 0.500000
vt 0.572048 0.500000
vt 0.499177 0.750000
vt 0.572048 0.750000
vt 0.499177 1.000000
vt 0.572048 1.000000
vt 0.125000 0.000000
vt 0.375000 0.000000
vt 0.375000 0.250000
vt 0.125000 0.250000
vt 0.375000 0.750000
vt 0.375000 1.000000
vt 0.375000 0.500000
vt 0.572048 0.250000
vt 0.572048 1.000000
vt 0.572048 0.750000
vt 0.572048 0.500000
vt 0.375000 0.312500
vt 0.387500 0.312500
vt 0.387500 0.688440
vt 0.375000 0.688440
vt 0.400000 0.312500
vt 0.400000 0.688440
vt 0.412500 0.312500
vt 0.412500 0.688440
vt 0.425000 0.312500
vt 0.425000 0.688440
vt 0.437500 0.312500
vt 0.437500 0.688440
vt 0.450000 0.312500
vt 0.450000 0.688440
vt 0.462500 0.312500
vt 0.462500 0.688440
vt 0.475000 0.312500
vt 0.475000 0.688440
vt 0.487500 0.312500
vt 0.487500 0.688440
vt 0.500000 0.312500
vt 0.500000 0.688440
vt 0.512500 0.312500
vt 0.512500 0.688440
vt 0.525000 0.312500
vt 0.525000 0.688440
vt 0.537500 0.312500
vt 0.537500 0.688440
vt 0.550000 0.312500
vt 0.550000 0.688440
vt 0.562500 0.312500
vt 0.562500 0.688440
vt 0.575000 0.312500
vt 0.575000 0.688440
vt 0.587500 0.312500
vt 0.587500 0.688440
vt 0.600000 0.312500
vt 0.600000 0.688440
vt 0.612500 0.312500
vt 0.612500 0.688440
vt 0.625000 0.312500
vt 0.625000 0.688440
vt 0.626409 0.064408
vt 0.648603 0.107966
vt 0.500000 0.150000
vt 0.591842 0.029841
vt 0.548284 0.007647
vt 0.500000 -0.000000
vt 0.451716 0.007647
vt 0.408159 0.029841
vt 0.373591 0.064409
vt 0.351397 0.107966
vt 0.343750 0.156250
vt 0.351397 0.204534
vt 0.373591 0.248091
vt 0.408159 0.282659
vt 0.451716 0.304853
vt 0.500000 0.312500
vt 0.548284 0.304853
vt 0.591841 0.282659
vt 0.626409 0.248091
vt 0.648603 0.204534
vt 0.656250 0.156250
vt 0.648603 0.892034
vt 0.626409 0.935591
vt 0.500000 0.837500
vt 0.591841 0.970159
vt 0.548284 0.992353
vt 0.500000 1.000000
vt 0.451716 0.992353
vt 0.408159 0.970159
vt 0.373591 0.935591
vt 0.351397 0.892034
vt 0.343750 0.843750
vt 0.351397 0.795466
vt 0.373591 0.751909
vt 0.408159 0.717341
vt 0.451716 0.695147
vt 0.500000 0.687500
vt 0.548284 0.695147
vt 0.591842 0.717341
vt 0.626409 0.751908
vt 0.648603 0.795466
vt 0.656250 0.843750
vt 0.375000 0.000000
vt 0.625000 0.000000
vt 0.625000 0.250000
vt 0.375000 0.250000
vt 0.625000 0.500000
vt 0.375000 0.500000
vt 0.625000 0.750000
vt 0.375000 0.750000
vt 0.625000 1.000000
vt 0.375000 1.000000
vt 0.875000 0.000000
vt 0.875000 0.250000
vt 0.125000 0.000000
vt 0.125000 0.250000
vt 0.375000 0.000000
vt 0.625000 0.000000
vt 0.625000 0.250000
vt 0.375000 0.250000
vt 0.625000 0.500000
vt 0.375000 0.500000
vt 0.625000 0.750000
vt 0.375000 0.750000
vt 0.625000 1.000000
vt 0.375000 1.000000
vt 0.875000 0.000000
vt 0.875000 0.250000
vt 0.125000 0.000000
vt 0.125000 0.250000
vn -0.401121 -0.827020 -0.393878
vn -0.399585 -0.822368 -0.405022
vn -0.411731 -0.861464 -0.297250
vn -0.411731 -0.861464 -0.297250
vn 0.896812 -0.442358 -0.006978
vn 0.897822 -0.439527 -0.027047
vn 0.851591 -0.462190 0.247333
vn 0.851591 -0.462190 0.247333
vn 0.387808 0.782066 0.487830
vn 0.391298 0.789277 0.473211
vn 0.434817 0.880076 0.190789
vn 0.434817 0.880076 0.190789
vn -0.864294 0.501140 -0.043073
vn -0.857690 0.510549 -0.060894
vn -0.803948 0.567228 -0.178663
vn -0.803948 0.567228 -0.178663
vn -0.242121 -0.602631 0.760404
vn -0.242121 -0.602631 0.760404
vn -0.242121 -0.602631 0.760404
vn -0.242121 -0.602631 0.760404
vn -0.888966 0.456516 0.036502
vn -0.888966 0.456516 0.036502
vn 0.364879 0.734810 0.571768
vn 0.364879 0.734810 0.571768
vn 0.895319 -0.416641 -0.157523
vn 0.895319 -0.416641 -0.157523
vn -0.391163 -0.797695 -0.458993
vn -0.391163 -0.797695 -0.458993
vn -0.371188 -0.860064 -0.350014
vn -0.371188 -0.860064 -0.350014
vn -0.371188 -0.860064 -0.350014
vn -0.371188 -0.860064 -0.350014
vn 0.270149 -0.399039 0.876235
vn 0.270149 -0.399039 0.876235
vn 0.270149 -0.399039 0.876235
vn 0.270149 -0.399039 0.876235
vn 0.524711 0.851005 -0.021667
vn 0.524711 0.851005 -0.021667
vn 0.524711 0.851005 -0.021667
vn 0.524711 0.851005 -0.021667
vn -0.146943 0.479841 -0.864963
vn -0.146943 0.479841 -0.864963
vn -0.146943 0.479841 -0.864963
vn -0.146943 0.479841 -0.864963
vn 0.544964 0.018385 -0.838258
vn 0.544964 0.018385 -0.838258
vn 0.544964 0.018385 -0.838258
vn 0.544964 0.018385 -0.838258
vn -0.073805 -0.995628 0.057260
vn -0.075698 -0.995400 0.058728
vn 0.000000 -1.000000 -0.000000
vn 0.000000 -1.000000 -0.000000
vn 0.825362 0.006439 0.564567
vn 0.834372 0.006473 0.551164
vn 0.993620 0.006286 -0.112603
vn 0.993620 0.006286 -0.112603
vn -0.074979 0.994612 0.071596
vn -0.067310 0.995639 0.064594
vn 0.016242 0.999799 -0.011722
vn 0.016242 0.999799 -0.011722
vn -0.644548 -0.014932 -0.764418
vn -0.622514 -0.014758 -0.782469
vn -0.993575 -0.013188 0.112404
vn -0.993575 -0.013188 0.112404
vn -0.926397 -0.020311 0.376000
vn -0.926397 -0.020311 0.376000
vn -0.926397 -0.020311 0.376000
vn -0.926397 -0.020311 0.376000
vn -0.082180 -0.008751 -0.996579
vn -0.082180 -0.008751 -0.996579
vn -0.118418 0.986712 0.111256
vn -0.118418 0.986711 0.111256
vn 0.320278 0.003847 0.947316
vn 0.320278 0.003847 0.947316
vn -0.114452 -0.989453 0.088795
vn -0.114452 -0.989453 0.088795
vn -0.665544 0.012927 -0.746247
vn -0.665544 0.012927 -0.746247
vn -0.665544 0.012927 -0.746247
vn -0.665544 0.012927 -0.746247
vn 0.000542 -1.000000 -0.000714
vn 0.000542 -1.000000 -0.000714
vn 0.000542 -1.000000 -0.000714
vn 0.000542 -1.000000 -0.000714
vn -0.188877 0.003911 0.981993
vn -0.188877 0.003911 0.981993
vn -0.188877 0.003911 0.981993
vn -0.188877 0.003911 0.981993
vn -0.004002 0.999978 0.005291
vn -0.004002 0.999978 0.005291
vn -0.004002 0.999978 0.005291
vn -0.004002 0.999978 0.005291
vn 0.274368 -0.001431 -0.961624
vn 0.274368 -0.001431 -0.961624
vn 0.274368 -0.001431 -0.961624
vn 0.274368 -0.001431 -0.961624
vn 0.895418 0.033627 -0.443956
vn 0.715895 0.103431 -0.690505
vn 0.715895 0.103431 -0.690505
vn 0.895417 0.033627 -0.443956
vn 0.466294 0.163112 -0.869462
vn 0.466294 0.163112 -0.869462
vn 0.171051 0.206827 -0.963309
vn 0.171051 0.206827 -0.963309
vn -0.140934 0.230295 -0.962861
vn -0.140934 0.230295 -0.962861
vn -0.439122 0.231219 -0.868164
vn -0.439123 0.231219 -0.868164
vn -0.694333 0.209512 -0.688481
vn -0.694333 0.209512 -0.688481
vn -0.881576 0.167296 -0.441403
vn -0.881576 0.167296 -0.441403
vn -0.982520 0.108703 -0.151121
vn -0.982520 0.108703 -0.151121
vn -0.987290 0.039470 0.153949
vn -0.987290 0.039470 0.153950
vn -0.895418 -0.033627 0.443956
vn -0.895417 -0.033627 0.443956
vn -0.715895 -0.103433 0.690505
vn -0.715895 -0.103433 0.690505
vn -0.466294 -0.163113 0.869462
vn -0.466294 -0.163113 0.869462
vn -0.171048 -0.206827 0.963309
vn -0.171048 -0.206827 0.963309
vn 0.140936 -0.230296 0.962861
vn 0.140936 -0.230296 0.962861
vn 0.439128 -0.231221 0.868161
vn 0.439127 -0.231221 0.868161
vn 0.694334 -0.209512 0.688481
vn 0.694334 -0.209512 0.688481
vn 0.881575 -0.167296 0.441405
vn 0.881575 -0.167296 0.441405
vn 0.982520 -0.108703 0.151126
vn 0.982520 -0.108703 0.151126
vn 0.987290 -0.039469 -0.153951
vn 0.987290 -0.039468 -0.153951
vn 0.627457 -0.282438 -0.725621
vn 0.799909 -0.333996 -0.498590
vn -0.055635 -0.976536 -0.208044
vn 0.393167 -0.241377 -0.887219
vn 0.121172 -0.214570 -0.969163
vn -0.161910 -0.204271 -0.965432
vn -0.429567 -0.211158 -0.878000
vn -0.657553 -0.234389 -0.716020
vn -0.825485 -0.271767 -0.494690
vn -0.918090 -0.319914 -0.234021
vn -0.926255 -0.374496 0.042483
vn -0.847922 -0.430502 0.309347
vn -0.688804 -0.482592 0.540974
vn -0.462573 -0.525588 0.713991
vn -0.190263 -0.554991 0.809806
vn 0.101350 -0.567550 0.817077
vn 0.382500 -0.561726 0.733592
vn 0.623781 -0.537956 0.567011
vn 0.799748 -0.498651 0.334289
vn 0.892074 -0.447919 0.059777
vn 0.891735 -0.391071 -0.227753
vn 0.073458 0.972320 0.221804
vn 0.073458 0.972320 0.221804
vn 0.073458 0.972320 0.221805
vn 0.073457 0.972320 0.221807
vn 0.073457 0.972320 0.221806
vn 0.073460 0.972319 0.221807
vn 0.073461 0.972320 0.221805
vn 0.073458 0.972320 0.221807
vn 0.073458 0.972320 0.221807
vn 0.073459 0.972320 0.221807
vn 0.073458 0.972320 0.221804
vn 0.073460 0.972320 0.221804
vn 0.073460 0.972320 0.221806
vn 0.073458 0.972320 0.221805
vn 0.073459 0.972320 0.221805
vn 0.073458 0.972320 0.221803
vn 0.073459 0.972320 0.221803
vn 0.073458 0.972320 0.221804
vn 0.073457 0.972320 0.221807
vn 0.073458 0.972320 0.221804
vn 0.073458 0.972320 0.221807
vn -0.002333 -0.999969 0.007594
vn -0.002333 -0.999968 0.007594
vn -0.002333 -0.999969 0.007594
vn -0.002333 -0.999968 0.007594
vn 0.001516 -0.000410 0.999999
vn 0.001516 -0.000410 0.999999
vn 0.001516 -0.000410 0.999999
vn 0.001516 -0.000410 0.999999
vn 0.000000 1.000000 -0.000000
vn 0.000000 1.000000 -0.000000
vn 0.000000 1.000000 -0.000000
vn 0.000000 1.000000 -0.000000
vn 0.040291 -0.085020 -0.995564
vn 0.040291 -0.085020 -0.995564
vn 0.040291 -0.085020 -0.995564
vn 0.040291 -0.085020 -0.995564
vn 0.985317 -0.013430 -0.170208
vn 0.985317 -0.013430 -0.170208
vn 0.985317 -0.013430 -0.170208
vn 0.985317 -0.013430 -0.170208
vn -1.000000 0.000034 0.000801
vn -1.000000 0.000034 0.000801
vn -1.000000 0.000034 0.000801
vn -1.000000 0.000034 0.000801
vn -0.004081 -0.999912 -0.012607
vn -0.004081 -0.999912 -0.012607
vn -0.004081 -0.999912 -0.012607
vn -0.004081 -0.999912 -0.012607
vn 0.346209 0.002341 0.938154
vn 0.346209 0.002341 0.938155
vn 0.346209 0.002341 0.938154
vn 0.346209 0.002341 0.938155
vn 0.027108 0.999597 -0.008401
vn 0.027108 0.999597 -0.008401
vn 0.027108 0.999597 -0.008401
vn 0.027108 0.999597 -0.008401
vn -0.253234 -0.107639 -0.961398
vn -0.253234 -0.107639 -0.961398
vn -0.253234 -0.107639 -0.961398
vn -0.253234 -0.107639 -0.961398
vn 0.939244 0.020236 -0.342653
vn 0.939244 0.020236 -0.342653
vn 0.939244 0.020236 -0.342653
vn 0.939244 0.020236 -0.342653
vn -0.921024 0.021500 0.388911
vn -0.921024 0.021500 0.388911
vn -0.921024 0.021500 0.388911
vn -0.921024 0.021500 0.388911
s 1
g polySurface7
usemtl initialShadingGroup
f 8/1/1 5/2/2 9/3/3 10/4/4
s 2
f 7/5/5 8/1/6 10/4/7 11/6/8
s 3
f 6/7/9 7/5/10 11/6/11 12/8/12
s 4
f 5/9/13 6/7/14 12/8/15 9/10/16
s off
f 4/11/17 1/12/18 2/13/19 3/14/20
s 4
f 4/15/21 6/7/14 5/9/13 1/16/22
s 3
f 3/17/23 7/5/10 6/7/9 4/15/24
s 2
f 2/13/25 8/1/6 7/5/5 3/17/26
s 1
f 1/12/27 5/2/2 8/1/1 2/13/28
s off
f 10/18/29 9/19/30 13/20/31 14/21/32
f 11/22/33 10/23/34 14/24/35 15/25/36
f 12/26/37 11/27/38 15/28/39 16/29/40
f 9/30/41 12/31/42 16/32/43 13/33/44
f 14/21/45 13/33/46 16/29/47 15/25/48
s 5
f 24/34/49 21/35/50 25/36/51 26/37/52
s 6
f 23/38/53 24/34/54 26/37/55 27/39/56
s 7
f 22/40/57 23/38/58 27/39/59 28/41/60
s 8
f 21/42/61 22/40/62 28/41/63 25/43/64
s off
f 20/44/65 17/45/66 18/46/67 19/47/68
s 8
f 20/48/69 22/40/62 21/42/61 17/49/70
s 7
f 19/50/71 23/38/58 22/40/57 20/48/72
s 6
f 18/46/73 24/34/54 23/38/53 19/50/74
s 5
f 17/45/75 21/35/50 24/34/49 18/46/76
s off
f 30/51/77 29/52/78 31/53/79 32/54/80
f 26/37/81 25/43/82 29/52/83 30/51/84
f 25/43/85 28/41/86 31/53/87 29/52/88
f 28/41/89 27/39/90 32/54/91 31/53/92
f 27/39/93 26/37/94 30/51/95 32/54/96
s 9
f 33/55/97 34/56/98 54/57/99 53/58/100
f 34/56/98 35/59/101 55/60/102 54/57/99
f 35/59/101 36/61/103 56/62/104 55/60/102
f 36/61/103 37/63/105 57/64/106 56/62/104
f 37/63/105 38/65/107 58/66/108 57/64/106
f 38/65/107 39/67/109 59/68/110 58/66/108
f 39/67/109 40/69/111 60/70/112 59/68/110
f 40/69/111 41/71/113 61/72/114 60/70/112
f 41/71/113 42/73/115 62/74/116 61/72/114
f 42/73/115 43/75/117 63/76/118 62/74/116
f 43/75/117 44/77/119 64/78/120 63/76/118
f 44/77/119 45/79/121 65/80/122 64/78/120
f 45/79/121 46/81/123 66/82/124 65/80/122
f 46/81/123 47/83/125 67/84/126 66/82/124
f 47/83/125 48/85/127 68/86/128 67/84/126
f 48/85/127 49/87/129 69/88/130 68/86/128
f 49/87/129 50/89/131 70/90/132 69/88/130
f 50/89/131 51/91/133 71/92/134 70/90/132
f 51/91/133 52/93/135 72/94/136 71/92/134
f 52/93/135 33/95/97 53/96/100 72/94/136
s 10
f 34/97/137 33/98/138 73/99/139
f 35/100/140 34/97/137 73/99/139
f 36/101/141 35/100/140 73/99/139
f 37/102/142 36/101/141 73/99/139
f 38/103/143 37/102/142 73/99/139
f 39/104/144 38/103/143 73/99/139
f 40/105/145 39/104/144 73/99/139
f 41/106/146 40/105/145 73/99/139
f 42/107/147 41/106/146 73/99/139
f 43/108/148 42/107/147 73/99/139
f 44/109/149 43/108/148 73/99/139
f 45/110/150 44/109/149 73/99/139
f 46/111/151 45/110/150 73/99/139
f 47/112/152 46/111/151 73/99/139
f 48/113/153 47/112/152 73/99/139
f 49/114/154 48/113/153 73/99/139
f 50/115/155 49/114/154 73/99/139
f 51/116/156 50/115/155 73/99/139
f 52/117/157 51/116/156 73/99/139
f 33/98/138 52/117/157 73/99/139
s 11
f 53/118/158 54/119/159 74/120/160
f 54/119/159 55/121/161 74/120/160
f 55/121/161 56/122/162 74/120/160
f 56/122/162 57/123/163 74/120/160
f 57/123/163 58/124/164 74/120/160
f 58/124/164 59/125/165 74/120/160
f 59/125/165 60/126/166 74/120/160
f 60/126/166 61/127/167 74/120/160
f 61/127/167 62/128/168 74/120/160
f 62/128/168 63/129/169 74/120/160
f 63/129/169 64/130/170 74/120/160
f 64/130/170 65/131/171 74/120/160
f 65/131/171 66/132/172 74/120/160
f 66/132/172 67/133/173 74/120/160
f 67/133/173 68/134/174 74/120/160
f 68/134/174 69/135/175 74/120/160
f 69/135/175 70/136/176 74/120/160
f 70/136/176 71/137/177 74/120/160
f 71/137/177 72/138/178 74/120/160
f 72/138/178 53/118/158 74/120/160
s off
f 75/139/179 76/140/180 78/141/181 77/142/182
f 77/142/183 78/141/184 80/143/185 79/144/186
f 79/144/187 80/143/188 82/145/189 81/146/190
f 81/146/191 82/145/192 76/147/193 75/148/194
f 76/140/195 82/149/196 80/150/197 78/141/198
f 81/151/199 75/139/200 77/142/201 79/152/202
f 83/153/203 84/154/204 86/155/205 85/156/206
f 85/156/207 86/155/208 88/157/209 87/158/210
f 87/158/211 88/157/212 90/159/213 89/160/214
f 89/160/215 90/159/216 84/161/217 83/162/218
f 84/154/219 90/163/220 88/164/221 86/155/222
f 89/165/223 83/153/224 85/156/225 87/166/226
